<?xml version="1.0" encoding="UTF-8"?>
<svg xmlns="http://www.w3.org/2000/svg" width="123.5mm" height="123.6mm" version="1.1" viewBox="0 0 350.1 350.3">
  <defs>
    <style>
      .cls-1 {
        fill: #14B8A6;
      }
    </style>
  </defs>
  <g>
    <g id="Ebene_1">
      <g id="Ebene_1-2" data-name="Ebene_1">
        <g id="Ebene_1-2">
          <g>
            <path class="cls-1" d="M112.2,90.5l-54.6-45.4c-3.2,2.9-6.2,5.8-9.2,8.9l29.1,39.9-44.5-21.5c-2.6,3.5-5,7.1-7.2,10.9l54.6,45.4c1.5-3,3.1-5.9,4.8-8.8l-39.9-33.2,47.1,22.9c1.1-1.3,2.1-2.6,3.3-3.9l-31.1-42.2,39.9,33.2c2.4-2.2,5-4.3,7.7-6.3h0Z"/>
            <path class="cls-1" d="M119.9,9c-3.1,1-6.3,2.2-9.3,3.3l15.8,58.8-34.2-50.2c-2.9,1.6-5.8,3.2-8.6,4.9l41.3,56.7c3.6-2,7.4-3.7,11.3-5.2L120,9h-.1Z"/>
            <path class="cls-1" d="M188.5,1l-12.8,47.9L164.4.7c-4.4.2-8.7.6-12.9,1.2l-1,71c3.2-.8,6.5-1.3,9.9-1.8l.7-51.8,11.7,50.9h5.1l13.2-50.5-.7,51.8c3.3.5,6.5,1.2,9.7,2l1-71c-4.2-.7-8.4-1.2-12.7-1.5h.1Z"/>
            <path class="cls-1" d="M260.6,23.4h0l-.5-.3-35.8,49.3,17.5-58.3-.5-.3c-2.9-1.2-5.7-2.3-8.7-3.4l-18.1,67.8c3.9,1.6,7.6,3.5,11.2,5.6l42.9-55.6c-2.6-1.7-5.2-3.3-7.9-4.8h-.1Z"/>
            <path class="cls-1" d="M317.9,76.6l-45.3,20.2,30.5-39.2c-2.9-3.2-5.9-6.3-9.1-9.3l-55.8,43.9c2.6,2.1,5.2,4.2,7.6,6.5l40.6-31.9-32.1,41c1.1,1.4,2.2,2.7,3.2,4.1l47.5-21.4-40.6,31.9c1.6,2.9,3.1,5.8,4.5,8.8l55.8-43.9c-2.1-3.7-4.4-7.3-6.8-10.8h0Z"/>
            <path class="cls-1" d="M345.8,147.4l-.2-1-60.9,3,56.4-22.9-.2-.9c-.8-2.9-1.8-5.8-2.8-8.6l-64.2,28.4c1.1,4,2.1,8.1,2.7,12.2l70.2-1.4c-.3-2.9-.7-5.9-1.1-8.8h.1Z"/>
            <path class="cls-1" d="M347.3,188.5l-69.2-15.8v1.6c0,2.8-.1,5.6-.3,8.4l50.4,11.5-52.1.8c-.4,1.7-.7,3.4-1.2,5.1l46.5,23.5-50.4-11.5c-1.2,3.1-2.5,6.1-4,9l69.2,15.8c1.5-4,2.9-8,4.2-12.1l-44.3-22.5,49.6-1c.7-4.2,1.2-8.5,1.5-12.9h.1Z"/>
            <path class="cls-1" d="M321.9,265.8l-62.6-31.9c-2.4,3.4-5,6.7-7.8,9.8l45.4,53.5c2.3-2.3,4.6-4.7,6.8-7.2l-40.7-45.2,53.4,29.3c1.9-2.7,3.7-5.5,5.5-8.3h0Z"/>
            <path class="cls-1" d="M271.9,317.9l-31.2-63.8c-2.6,2.1-5.2,4.1-8,6l22.8,46.5-33.5-40.1c-1.5.8-3.1,1.6-4.7,2.3l11.1,51.1-22.8-46.5c-3.1,1-6.3,1.9-9.6,2.5l31.3,63.8c4.1-1.3,8.1-2.8,12-4.4l-10.3-48.5,31.9,37.9c3.8-2.2,7.4-4.5,11-6.9h0Z"/>
            <path class="cls-1" d="M181.2,278c-2.4.2-4.8.2-7.1.2s-3.5,0-5.3-.1l-13.1,69c3.3.3,6.6.6,9.9.8l9.6-59.9,10.8,59.7c3.3-.2,6.6-.5,9.9-.9l-14.6-68.7h0Z"/>
            <path class="cls-1" d="M144.1,273.9l-21.9,47,10.1-51.4c-1.6-.7-3.1-1.4-4.6-2.2l-32.8,40.8,21.9-47.1c-2.8-1.8-5.4-3.8-8-5.8l-29.9,64.4c3.6,2.3,7.2,4.6,11,6.6l31.1-38.4-9.4,48.5c4,1.6,8.1,3,12.3,4.2l29.9-64.4c-3.3-.6-6.5-1.5-9.7-2.4h0v.2Z"/>
            <path class="cls-1" d="M90,235.6l-61.9,33.2c1.8,2.8,3.7,5.5,5.6,8.1l52.6-30.2-39.6,45.8c2.2,2.4,4.6,4.8,6.9,7.1l44.2-54.5c-2.8-3-5.4-6.2-7.9-9.5h.1Z"/>
            <path class="cls-1" d="M77.8,213.8l-50.4,12.6,46.3-24.5c-.4-1.6-.9-3.3-1.2-4.9l-52.4.2,50.4-12.6c-.3-3.3-.5-6.6-.5-9.9L1.1,192c.4,4.3,1,8.5,1.8,12.7h49.3l-43.6,23.2c1.3,4.2,2.8,8.2,4.5,12.2l68.9-17.3c-1.6-2.9-3-6-4.2-9.1h0Z"/>
            <path class="cls-1" d="M8.7,120.4c-1,3.1-1.9,6.3-2.8,9.5l56.6,21.9-60.6-2c-.5,3.2-.8,6.5-1.1,9.8h70.2c.6-4,1.4-8.1,2.4-12L8.7,120.4h0Z"/>
          </g>
        </g>
      </g>
    </g>
  </g>
</svg>
